<?xml version="1.0" encoding="UTF-8"?>
<svg width="1021.7pt" height="1021.7pt" preserveAspectRatio="xMidYMid" version="1.0" viewBox="0 0 1021.7 1021.7" xmlns="http://www.w3.org/2000/svg">
<circle cx="510.83" cy="510.83" r="510.83" fill="#2a2d34" stroke-width=".75"/>
<g transform="matrix(.14309 0 0 -.14309 -222.48 1207.6)" fill="#1dbf73">
<path d="m3278 7569c-121-28-234-123-295-246l-38-77-3-1323c-1-728 1-1323 5-1323 5 0 35 41 68 91 106 161 316 336 489 408 257 107 551 115 826 24 140-47 271-128 370-228l54-55h226v297l77 7c42 3 102 6 135 6h58v-310h226l70 66c172 164 363 248 622 274 265 28 563-47 757-188 118-87 246-219 317-329 23-35 45-63 50-63s7 573 6 1328l-3 1327-32 68c-43 91-123 168-222 216l-76 36-1825 2c-1035 0-1841-3-1862-8zm3553-361c59-28 96-65 116-116 15-40 18-78 18-272 0-245-3-258-63-322-57-62 44-58-1798-56l-1681 3-48 30c-34 21-56 44-71 75-22 42-23 59-26 285-3 237-3 240 20 278 31 50 83 88 140 103 37 10 391 12 1702 11 1539-2 1658-3 1691-19zm-4-1143c62-18 118-76 130-132 4-21 7-99 8-173 0-107-4-141-17-165-21-39-56-71-91-84-20-8-552-11-1740-11h-1712l-39 23c-70 40-79 60-88 209-5 73-7 153-3 178 7 61 47 114 108 145l51 25h1671c1459 0 1678-2 1722-15z"/>
<path d="m6074 6961c-41-25-57-75-52-158 4-59 8-69 36-94 26-24 41-29 82-29s55 5 85 31c34 30 35 33 35 106 0 47-6 85-15 103-30 58-112 77-171 41z"/>
<path d="m6504 6946c-33-33-34-36-34-119 0-76 3-89 23-113 20-23 34-28 85-32 60-4 63-3 97 31s35 38 35 106c0 86-16 122-64 145-57 27-103 21-142-18z"/>
<path d="m5304 6961c-11-5-34-25-52-45-26-30-32-45-32-82 0-52 19-94 56-123 25-20 39-21 236-21 135 0 217 4 231 11 93 48 111 163 37 234l-31 30-212 2c-117 1-221-2-233-6z"/>
<path d="m5973 5840c-47-19-57-87-18-125 22-23 32-25 115-25s93 2 115 25c16 15 25 36 25 55s-9 40-25 55c-22 23-32 25-107 24-46 0-93-4-105-9z"/>
<path d="m6469 5837c-43-33-46-81-6-124 18-21 30-23 109-23 81 0 91 2 113 25 16 15 25 36 25 55s-9 40-25 55c-22 23-32 25-112 25-53-1-94-5-104-13z"/>
<path d="m3845 4919c-81-12-217-55-290-91-177-89-319-245-416-453-60-131-72-175-154-560-174-825-188-899-189-1035-1-98 3-137 18-180 71-209 218-358 411-416 95-29 257-24 361 9 137 45 195 89 484 366 287 275 282 271 321 271 63 0 174 30 245 65 89 43 183 140 243 249l42 76h384l40-72c103-185 263-293 464-313l75-7 165-157c423-401 441-416 538-455 256-104 522-54 693 132 70 76 123 165 156 262 15 42 19 82 18 170-1 121-5 140-145 770-28 124-68 310-89 413-75 356-155 528-325 702-227 232-570 318-872 219-143-47-229-99-334-204-53-52-115-125-139-162l-43-68h-775l-60 83c-106 146-233 252-376 317-127 57-325 88-451 69zm158-381c10-5 27-24 37-41 17-27 20-51 20-150v-118l133 2c142 2 161-3 196-47 46-59 32-146-31-184-29-17-50-20-165-20h-133v-119c0-106-2-121-23-152-45-67-139-75-197-18l-30 31v256l-125 4c-125 3-125 3-156 34-60 60-45 170 26 202 15 7 71 12 128 12 67 0 107 4 115 12s12 50 12 124c0 106 1 114 26 143 39 47 109 59 167 29zm2364-31c48-47 56-115 21-167-63-94-190-88-240 11-23 45-23 86 2 127 50 81 151 95 217 29zm-357-295c61-45 64-152 5-208-61-57-148-52-204 11-25 29-31 44-31 83 0 124 130 188 230 114zm675 8c62-38 83-126 45-187-54-89-200-82-244 11-9 19-16 44-16 55 0 36 26 86 59 114 41 34 108 37 156 7zm-339-305c61-40 82-130 44-192-25-42-68-63-126-63-40 0-51 5-84 38-51 51-60 96-30 157 38 78 127 106 196 60zm-1847-318c120-79 133-226 30-329-52-52-87-63-175-56-60 5-110 38-151 97-66 97-24 242 87 299 62 32 150 28 209-11zm1441 12c57-26 77-44 103-94 46-91 16-209-71-270-40-27-51-30-120-30s-82 3-120 29c-54 37-92 107-92 171 0 157 158 259 300 194z"/>
</g>
</svg>
